<mxfile host="Electron" modified="2024-01-10T03:38:49.732Z" agent="Mozilla/5.0 (Windows NT 10.0; Win64; x64) AppleWebKit/537.36 (KHTML, like Gecko) draw.io/22.1.16 Chrome/120.0.6099.109 Electron/28.1.0 Safari/537.36" etag="udj6x7V4LqTDBkQSpUNS" version="22.1.16" type="device">
  <diagram id="R2lEEEUBdFMjLlhIrx00" name="Page-1">
    <mxGraphModel dx="794" dy="511" grid="1" gridSize="10" guides="1" tooltips="1" connect="1" arrows="1" fold="1" page="0" pageScale="1" pageWidth="850" pageHeight="1100" math="0" shadow="0" extFonts="Permanent Marker^https://fonts.googleapis.com/css?family=Permanent+Marker">
      <root>
        <mxCell id="0" />
        <mxCell id="1" parent="0" />
        <mxCell id="kEaBspGjp2HojBMsxIdd-4" value="Hospital" style="swimlane;childLayout=stackLayout;horizontal=1;startSize=50;horizontalStack=0;rounded=1;fontSize=14;fontStyle=0;strokeWidth=2;resizeParent=0;resizeLast=1;shadow=0;dashed=0;align=center;arcSize=4;whiteSpace=wrap;html=1;fillColor=#CCFFFF;" parent="1" vertex="1">
          <mxGeometry x="70" y="180" width="180" height="120" as="geometry">
            <mxRectangle x="80" y="180" width="90" height="50" as="alternateBounds" />
          </mxGeometry>
        </mxCell>
        <mxCell id="kEaBspGjp2HojBMsxIdd-49" value="Hospital_ID&amp;nbsp; &amp;nbsp; &amp;nbsp; &amp;nbsp; &amp;nbsp; (PK)&lt;br&gt;Hospital_Name&lt;br&gt;Hospital_Address(City,Country)" style="align=left;strokeColor=none;fillColor=none;spacingLeft=4;fontSize=12;verticalAlign=top;resizable=0;rotatable=0;part=1;html=1;" parent="kEaBspGjp2HojBMsxIdd-4" vertex="1">
          <mxGeometry y="50" width="180" height="70" as="geometry" />
        </mxCell>
        <mxCell id="kEaBspGjp2HojBMsxIdd-47" style="align=left;strokeColor=none;fillColor=none;spacingLeft=4;fontSize=12;verticalAlign=top;resizable=0;rotatable=0;part=1;html=1;" parent="kEaBspGjp2HojBMsxIdd-4" vertex="1">
          <mxGeometry y="120" width="180" as="geometry" />
        </mxCell>
        <mxCell id="kEaBspGjp2HojBMsxIdd-48" style="align=left;strokeColor=none;fillColor=none;spacingLeft=4;fontSize=12;verticalAlign=top;resizable=0;rotatable=0;part=1;html=1;" parent="kEaBspGjp2HojBMsxIdd-4" vertex="1">
          <mxGeometry y="120" width="180" as="geometry" />
        </mxCell>
        <mxCell id="kEaBspGjp2HojBMsxIdd-55" value="Doctor" style="swimlane;childLayout=stackLayout;horizontal=1;startSize=50;horizontalStack=0;rounded=1;fontSize=14;fontStyle=0;strokeWidth=2;resizeParent=0;resizeLast=1;shadow=0;dashed=0;align=center;arcSize=4;whiteSpace=wrap;html=1;fillColor=#FFF2CC;" parent="1" vertex="1">
          <mxGeometry x="365" y="180" width="240" height="130" as="geometry">
            <mxRectangle x="370" y="180" width="90" height="50" as="alternateBounds" />
          </mxGeometry>
        </mxCell>
        <mxCell id="kEaBspGjp2HojBMsxIdd-56" value="Doctor_ID&amp;nbsp; &amp;nbsp; &amp;nbsp; &amp;nbsp; &amp;nbsp; &amp;nbsp; &amp;nbsp;(PK)&lt;br&gt;Hospital_ID&lt;span style=&quot;white-space: pre;&quot;&gt;&#x9;&lt;/span&gt;&amp;nbsp; &amp;nbsp; &amp;nbsp;(FK)&lt;br&gt;Doctor_Name (First_Name,Last_Name)&amp;nbsp; &amp;nbsp; &amp;nbsp; &amp;nbsp; &amp;nbsp; &amp;nbsp; &amp;nbsp;&lt;br&gt;Doctor_Specialist&lt;br&gt;Phone_Number" style="align=left;strokeColor=none;fillColor=none;spacingLeft=4;fontSize=12;verticalAlign=top;resizable=0;rotatable=0;part=1;html=1;" parent="kEaBspGjp2HojBMsxIdd-55" vertex="1">
          <mxGeometry y="50" width="240" height="70" as="geometry" />
        </mxCell>
        <mxCell id="kEaBspGjp2HojBMsxIdd-57" style="align=left;strokeColor=none;fillColor=none;spacingLeft=4;fontSize=12;verticalAlign=top;resizable=0;rotatable=0;part=1;html=1;" parent="kEaBspGjp2HojBMsxIdd-55" vertex="1">
          <mxGeometry y="120" width="240" as="geometry" />
        </mxCell>
        <mxCell id="kEaBspGjp2HojBMsxIdd-58" style="align=left;strokeColor=none;fillColor=none;spacingLeft=4;fontSize=12;verticalAlign=top;resizable=0;rotatable=0;part=1;html=1;" parent="kEaBspGjp2HojBMsxIdd-55" vertex="1">
          <mxGeometry y="120" width="240" height="10" as="geometry" />
        </mxCell>
        <mxCell id="kEaBspGjp2HojBMsxIdd-60" value="Appointment" style="swimlane;childLayout=stackLayout;horizontal=1;startSize=50;horizontalStack=0;rounded=1;fontSize=14;fontStyle=0;strokeWidth=2;resizeParent=0;resizeLast=1;shadow=0;dashed=0;align=center;arcSize=4;whiteSpace=wrap;html=1;fillColor=#D5E8D4;" parent="1" vertex="1">
          <mxGeometry x="370" y="360" width="230" height="160" as="geometry">
            <mxRectangle x="370" y="360" width="90" height="50" as="alternateBounds" />
          </mxGeometry>
        </mxCell>
        <mxCell id="kEaBspGjp2HojBMsxIdd-61" value="Appointment_ID&amp;nbsp; &amp;nbsp; &amp;nbsp; (PK)&lt;br&gt;Doctor_ID&amp;nbsp; &amp;nbsp; &amp;nbsp; &amp;nbsp; &amp;nbsp; &amp;nbsp; &amp;nbsp; &amp;nbsp; (FK)&lt;br&gt;Patient_ID&amp;nbsp; &amp;nbsp; &amp;nbsp; &amp;nbsp; &amp;nbsp; &amp;nbsp; &amp;nbsp; &amp;nbsp; (FK)&amp;nbsp;&lt;br&gt;Appointment_Reason&lt;br&gt;Appointment_Number&lt;br&gt;Appointment_Date" style="align=left;strokeColor=none;fillColor=none;spacingLeft=4;fontSize=12;verticalAlign=top;resizable=0;rotatable=0;part=1;html=1;" parent="kEaBspGjp2HojBMsxIdd-60" vertex="1">
          <mxGeometry y="50" width="230" height="70" as="geometry" />
        </mxCell>
        <mxCell id="kEaBspGjp2HojBMsxIdd-62" style="align=left;strokeColor=none;fillColor=none;spacingLeft=4;fontSize=12;verticalAlign=top;resizable=0;rotatable=0;part=1;html=1;" parent="kEaBspGjp2HojBMsxIdd-60" vertex="1">
          <mxGeometry y="120" width="230" as="geometry" />
        </mxCell>
        <mxCell id="kEaBspGjp2HojBMsxIdd-63" style="align=left;strokeColor=none;fillColor=none;spacingLeft=4;fontSize=12;verticalAlign=top;resizable=0;rotatable=0;part=1;html=1;" parent="kEaBspGjp2HojBMsxIdd-60" vertex="1">
          <mxGeometry y="120" width="230" height="40" as="geometry" />
        </mxCell>
        <mxCell id="kEaBspGjp2HojBMsxIdd-76" style="edgeStyle=none;rounded=0;orthogonalLoop=1;jettySize=auto;html=1;exitX=0.5;exitY=1;exitDx=0;exitDy=0;" parent="kEaBspGjp2HojBMsxIdd-60" source="kEaBspGjp2HojBMsxIdd-63" target="kEaBspGjp2HojBMsxIdd-63" edge="1">
          <mxGeometry relative="1" as="geometry" />
        </mxCell>
        <mxCell id="kEaBspGjp2HojBMsxIdd-64" value="Patient" style="swimlane;childLayout=stackLayout;horizontal=1;startSize=50;horizontalStack=0;rounded=1;fontSize=14;fontStyle=0;strokeWidth=2;resizeParent=0;resizeLast=1;shadow=0;dashed=0;align=center;arcSize=4;whiteSpace=wrap;html=1;fillColor=#E1D5E7;" parent="1" vertex="1">
          <mxGeometry x="370" y="620" width="230" height="120" as="geometry">
            <mxRectangle x="370" y="620" width="90" height="50" as="alternateBounds" />
          </mxGeometry>
        </mxCell>
        <mxCell id="kEaBspGjp2HojBMsxIdd-65" value="Patient_ID&amp;nbsp; &amp;nbsp; &amp;nbsp; &amp;nbsp; &amp;nbsp; (PK)&lt;br&gt;Patient_Name (First_Name,Last_Name)&amp;nbsp; &amp;nbsp; &amp;nbsp; &amp;nbsp; &amp;nbsp; &amp;nbsp;&amp;nbsp;&lt;br&gt;Phone_Number&lt;br&gt;Patient_Address (City,Country)" style="align=left;strokeColor=none;fillColor=none;spacingLeft=4;fontSize=12;verticalAlign=top;resizable=0;rotatable=0;part=1;html=1;" parent="kEaBspGjp2HojBMsxIdd-64" vertex="1">
          <mxGeometry y="50" width="230" height="70" as="geometry" />
        </mxCell>
        <mxCell id="kEaBspGjp2HojBMsxIdd-66" style="align=left;strokeColor=none;fillColor=none;spacingLeft=4;fontSize=12;verticalAlign=top;resizable=0;rotatable=0;part=1;html=1;" parent="kEaBspGjp2HojBMsxIdd-64" vertex="1">
          <mxGeometry y="120" width="230" as="geometry" />
        </mxCell>
        <mxCell id="kEaBspGjp2HojBMsxIdd-67" style="align=left;strokeColor=none;fillColor=none;spacingLeft=4;fontSize=12;verticalAlign=top;resizable=0;rotatable=0;part=1;html=1;" parent="kEaBspGjp2HojBMsxIdd-64" vertex="1">
          <mxGeometry y="120" width="230" as="geometry" />
        </mxCell>
        <mxCell id="kEaBspGjp2HojBMsxIdd-68" value="Payment" style="swimlane;childLayout=stackLayout;horizontal=1;startSize=50;horizontalStack=0;rounded=1;fontSize=14;fontStyle=0;strokeWidth=2;resizeParent=0;resizeLast=1;shadow=0;dashed=0;align=center;arcSize=4;whiteSpace=wrap;html=1;fillColor=#E6E6E6;" parent="1" vertex="1">
          <mxGeometry x="80" y="620" width="160" height="150" as="geometry">
            <mxRectangle x="90" y="620" width="90" height="50" as="alternateBounds" />
          </mxGeometry>
        </mxCell>
        <mxCell id="kEaBspGjp2HojBMsxIdd-69" value="Payment_ID&amp;nbsp; &amp;nbsp; &amp;nbsp; &amp;nbsp; &amp;nbsp; &amp;nbsp; &amp;nbsp; (PK)&lt;br&gt;Patient_ID&lt;span style=&quot;white-space: pre;&quot;&gt;&#x9;&lt;/span&gt;&lt;span style=&quot;white-space: pre;&quot;&gt;&#x9;&lt;/span&gt;&amp;nbsp; (FK)&lt;br&gt;Receipt_Number&amp;nbsp; &amp;nbsp; &amp;nbsp; &amp;nbsp;(FK)&lt;br&gt;Payment_method&lt;br&gt;Payment_Amount&lt;br&gt;Payment_Date" style="align=left;strokeColor=none;fillColor=none;spacingLeft=4;fontSize=12;verticalAlign=top;resizable=0;rotatable=0;part=1;html=1;" parent="kEaBspGjp2HojBMsxIdd-68" vertex="1">
          <mxGeometry y="50" width="160" height="70" as="geometry" />
        </mxCell>
        <mxCell id="kEaBspGjp2HojBMsxIdd-70" style="align=left;strokeColor=none;fillColor=none;spacingLeft=4;fontSize=12;verticalAlign=top;resizable=0;rotatable=0;part=1;html=1;" parent="kEaBspGjp2HojBMsxIdd-68" vertex="1">
          <mxGeometry y="120" width="160" as="geometry" />
        </mxCell>
        <mxCell id="kEaBspGjp2HojBMsxIdd-71" style="align=left;strokeColor=none;fillColor=none;spacingLeft=4;fontSize=12;verticalAlign=top;resizable=0;rotatable=0;part=1;html=1;" parent="kEaBspGjp2HojBMsxIdd-68" vertex="1">
          <mxGeometry y="120" width="160" height="30" as="geometry" />
        </mxCell>
        <mxCell id="kEaBspGjp2HojBMsxIdd-72" value="Receipt" style="swimlane;childLayout=stackLayout;horizontal=1;startSize=50;horizontalStack=0;rounded=1;fontSize=14;fontStyle=0;strokeWidth=2;resizeParent=0;resizeLast=1;shadow=0;dashed=0;align=center;arcSize=4;whiteSpace=wrap;html=1;fillColor=#FFCCFF;" parent="1" vertex="1">
          <mxGeometry x="80" y="360" width="160" height="120" as="geometry">
            <mxRectangle x="80" y="360" width="90" height="50" as="alternateBounds" />
          </mxGeometry>
        </mxCell>
        <mxCell id="kEaBspGjp2HojBMsxIdd-73" value="Receipt_Number&amp;nbsp; &amp;nbsp; &amp;nbsp; &amp;nbsp;(PK)&lt;br&gt;Appointment_ID&amp;nbsp; &amp;nbsp; &amp;nbsp; &amp;nbsp; (FK)&lt;br&gt;Receipt_Status" style="align=left;strokeColor=none;fillColor=none;spacingLeft=4;fontSize=12;verticalAlign=top;resizable=0;rotatable=0;part=1;html=1;" parent="kEaBspGjp2HojBMsxIdd-72" vertex="1">
          <mxGeometry y="50" width="160" height="70" as="geometry" />
        </mxCell>
        <mxCell id="kEaBspGjp2HojBMsxIdd-74" style="align=left;strokeColor=none;fillColor=none;spacingLeft=4;fontSize=12;verticalAlign=top;resizable=0;rotatable=0;part=1;html=1;" parent="kEaBspGjp2HojBMsxIdd-72" vertex="1">
          <mxGeometry y="120" width="160" as="geometry" />
        </mxCell>
        <mxCell id="kEaBspGjp2HojBMsxIdd-75" style="align=left;strokeColor=none;fillColor=none;spacingLeft=4;fontSize=12;verticalAlign=top;resizable=0;rotatable=0;part=1;html=1;" parent="kEaBspGjp2HojBMsxIdd-72" vertex="1">
          <mxGeometry y="120" width="160" as="geometry" />
        </mxCell>
        <mxCell id="kEaBspGjp2HojBMsxIdd-79" value="" style="fontSize=12;html=1;endArrow=ERoneToMany;startArrow=ERmandOne;rounded=0;exitX=1;exitY=0.5;exitDx=0;exitDy=0;entryX=0.001;entryY=0.143;entryDx=0;entryDy=0;entryPerimeter=0;" parent="1" source="kEaBspGjp2HojBMsxIdd-4" target="kEaBspGjp2HojBMsxIdd-56" edge="1">
          <mxGeometry width="100" height="100" relative="1" as="geometry">
            <mxPoint x="200" y="390" as="sourcePoint" />
            <mxPoint x="360" y="250" as="targetPoint" />
          </mxGeometry>
        </mxCell>
        <mxCell id="CAAe29PesmH0sVvvKc1i-1" value="has" style="edgeLabel;html=1;align=center;verticalAlign=middle;resizable=0;points=[];" vertex="1" connectable="0" parent="kEaBspGjp2HojBMsxIdd-79">
          <mxGeometry x="0.0354" y="-1" relative="1" as="geometry">
            <mxPoint y="-1" as="offset" />
          </mxGeometry>
        </mxCell>
        <mxCell id="kEaBspGjp2HojBMsxIdd-80" value="" style="fontSize=12;html=1;endArrow=ERzeroToMany;startArrow=ERmandOne;rounded=0;" parent="1" edge="1">
          <mxGeometry width="100" height="100" relative="1" as="geometry">
            <mxPoint x="471" y="310" as="sourcePoint" />
            <mxPoint x="471" y="360" as="targetPoint" />
          </mxGeometry>
        </mxCell>
        <mxCell id="CAAe29PesmH0sVvvKc1i-5" value="Is Schedule" style="edgeLabel;html=1;align=center;verticalAlign=middle;resizable=0;points=[];" vertex="1" connectable="0" parent="kEaBspGjp2HojBMsxIdd-80">
          <mxGeometry x="0.033" y="1" relative="1" as="geometry">
            <mxPoint as="offset" />
          </mxGeometry>
        </mxCell>
        <mxCell id="kEaBspGjp2HojBMsxIdd-81" value="" style="fontSize=12;html=1;endArrow=ERmandOne;startArrow=ERmandOne;rounded=0;exitX=1;exitY=0.25;exitDx=0;exitDy=0;entryX=0;entryY=0.25;entryDx=0;entryDy=0;" parent="1" source="kEaBspGjp2HojBMsxIdd-73" target="kEaBspGjp2HojBMsxIdd-61" edge="1">
          <mxGeometry width="100" height="100" relative="1" as="geometry">
            <mxPoint x="230" y="440" as="sourcePoint" />
            <mxPoint x="360" y="440" as="targetPoint" />
          </mxGeometry>
        </mxCell>
        <mxCell id="CAAe29PesmH0sVvvKc1i-2" value="Generates" style="edgeLabel;html=1;align=center;verticalAlign=middle;resizable=0;points=[];" vertex="1" connectable="0" parent="kEaBspGjp2HojBMsxIdd-81">
          <mxGeometry x="0.041" y="1" relative="1" as="geometry">
            <mxPoint y="1" as="offset" />
          </mxGeometry>
        </mxCell>
        <mxCell id="kEaBspGjp2HojBMsxIdd-82" value="" style="fontSize=12;html=1;endArrow=ERoneToMany;startArrow=ERmandOne;rounded=0;entryX=0.404;entryY=1.025;entryDx=0;entryDy=0;entryPerimeter=0;exitX=0.404;exitY=0;exitDx=0;exitDy=0;exitPerimeter=0;" parent="1" source="kEaBspGjp2HojBMsxIdd-64" target="kEaBspGjp2HojBMsxIdd-63" edge="1">
          <mxGeometry width="100" height="100" relative="1" as="geometry">
            <mxPoint x="430" y="600" as="sourcePoint" />
            <mxPoint x="430" y="540" as="targetPoint" />
          </mxGeometry>
        </mxCell>
        <mxCell id="CAAe29PesmH0sVvvKc1i-9" value="Schedules" style="edgeLabel;html=1;align=center;verticalAlign=middle;resizable=0;points=[];" vertex="1" connectable="0" parent="kEaBspGjp2HojBMsxIdd-82">
          <mxGeometry x="0.0438" relative="1" as="geometry">
            <mxPoint as="offset" />
          </mxGeometry>
        </mxCell>
        <mxCell id="kEaBspGjp2HojBMsxIdd-83" value="" style="fontSize=12;html=1;endArrow=ERzeroToMany;startArrow=ERmandOne;rounded=0;exitX=0.5;exitY=1;exitDx=0;exitDy=0;entryX=0.5;entryY=0;entryDx=0;entryDy=0;" parent="1" source="kEaBspGjp2HojBMsxIdd-73" target="kEaBspGjp2HojBMsxIdd-68" edge="1">
          <mxGeometry width="100" height="100" relative="1" as="geometry">
            <mxPoint x="230" y="640" as="sourcePoint" />
            <mxPoint x="160" y="610" as="targetPoint" />
          </mxGeometry>
        </mxCell>
        <mxCell id="CAAe29PesmH0sVvvKc1i-10" value="Pays" style="edgeLabel;html=1;align=center;verticalAlign=middle;resizable=0;points=[];" vertex="1" connectable="0" parent="kEaBspGjp2HojBMsxIdd-83">
          <mxGeometry x="-0.1238" y="-2" relative="1" as="geometry">
            <mxPoint as="offset" />
          </mxGeometry>
        </mxCell>
        <mxCell id="kEaBspGjp2HojBMsxIdd-85" value="" style="fontSize=12;html=1;endArrow=ERzeroToMany;startArrow=ERmandOne;rounded=0;" parent="1" edge="1">
          <mxGeometry width="100" height="100" relative="1" as="geometry">
            <mxPoint x="370" y="690" as="sourcePoint" />
            <mxPoint x="240" y="690" as="targetPoint" />
          </mxGeometry>
        </mxCell>
        <mxCell id="CAAe29PesmH0sVvvKc1i-3" value="Does" style="edgeLabel;html=1;align=center;verticalAlign=middle;resizable=0;points=[];" vertex="1" connectable="0" parent="kEaBspGjp2HojBMsxIdd-85">
          <mxGeometry x="0.0667" y="2" relative="1" as="geometry">
            <mxPoint y="-2" as="offset" />
          </mxGeometry>
        </mxCell>
      </root>
    </mxGraphModel>
  </diagram>
</mxfile>
